<svg viewBox="0 0 100 100" xmlns="http://www.w3.org/2000/svg" style="display:none"><symbol viewBox="0 0 117.801 35.096" id="sculpt_mark"><title>Sculpt Logo</title> <g> <path style="fill:#FFFFFF" d="M27.853,3.052c-0.597-0.45-1.242-0.842-1.918-1.163C20.664-0.617,15.08-0.607,9.802,1.783
		C4.531,4.17,0.243,10.908,0.243,16.804v18.292h18.292c5.896,0,12.634-4.288,15.021-9.559C37.209,17.47,35.229,8.614,27.853,3.052z
		 M30.69,24.239c-1.893,4.179-7.458,7.711-12.154,7.711H3.389V16.804c0-4.696,3.531-10.262,7.711-12.155
		c4.457-2.018,9.112-2.023,13.456,0.102c0.504,0.247,0.989,0.543,1.44,0.877C32.113,10.167,33.739,17.505,30.69,24.239z
		 M14.119,20.253c0,0,1.628,1.488,3.439,1.488c0.724,0,1.508-0.282,1.508-1.146c0-1.71-6.476-1.649-6.476-6.073
		c0-2.654,2.232-4.404,5.088-4.404c3.098,0,4.626,1.629,4.626,1.629l-1.488,2.875c0,0-1.448-1.267-3.177-1.267
		c-0.724,0-1.529,0.322-1.529,1.126c0,1.81,6.476,1.488,6.476,6.033c0,2.393-1.831,4.465-5.068,4.465
		c-3.378,0-5.248-2.052-5.248-2.052L14.119,20.253z"/></g> </symbol></svg>