<svg viewBox="0 0 100 100" xmlns="http://www.w3.org/2000/svg" style="display:none">

<symbol viewBox="0 17.641 200 64.719" id="sculptLogo--light"> <path style="fill:#FFFFFF" d="M47.26,25.368c-1.008-0.758-2.092-1.413-3.232-1.955c-8.948-4.253-18.427-4.235-27.387-0.178
	C7.693,27.287,0.413,38.727,0.413,48.737v27.056c0,2.209,1.791,4,4,4h27.056c10.01,0,21.45-7.28,25.502-16.229
	C63.177,49.857,59.806,34.81,47.26,25.368z M52.105,61.36c-3.214,7.095-12.662,13.092-20.635,13.092H6.754c-0.552,0-1-0.448-1-1
	V48.737c0-7.973,5.995-17.423,13.092-20.636c7.567-3.426,15.47-3.435,22.845,0.173c0.856,0.419,1.679,0.922,2.445,1.489
	C54.521,37.469,57.281,49.927,52.105,61.36z M23.365,55.469c0.32-0.463,0.955-0.567,1.413-0.238
	c1.041,0.748,2.967,1.888,5.032,1.888c1.229,0,2.56-0.479,2.56-1.946c0-2.903-10.995-2.8-10.995-10.311
	c0-4.506,3.789-7.477,8.638-7.477c3.737,0,6.128,1.396,7.2,2.204c0.393,0.296,0.517,0.826,0.291,1.263l-1.627,3.144
	c-0.274,0.529-0.941,0.698-1.441,0.373c-0.975-0.632-2.637-1.489-4.489-1.489c-1.229,0-2.596,0.547-2.596,1.912
	c0,3.073,10.995,2.526,10.995,10.243c0,4.063-3.109,7.581-8.604,7.581c-4.189,0-7.012-1.858-8.229-2.86
	c-0.403-0.331-0.481-0.912-0.185-1.341L23.365,55.469z"/> <path style="fill:#33333d" d="M88.66,56.193c0,4.156-3.505,7.109-8.511,7.109c-4.405,0-7.259-1.852-8.51-2.903
	c-0.601-0.451-0.651-1.051-0.2-1.702l0.4-0.501c0.451-0.601,1.002-0.651,1.702-0.2c1.102,0.851,3.404,2.303,6.658,2.303
	c2.804,0,5.106-1.401,5.106-4.055c0-5.657-13.467-3.955-13.467-12.265c0-4.656,3.955-7.059,8.561-7.059
	c3.604,0,5.858,1.302,6.909,2.052c0.651,0.4,0.751,1.001,0.35,1.652l-0.35,0.551c-0.4,0.701-1.001,0.751-1.702,0.35
	c-0.952-0.651-2.753-1.602-5.407-1.602c-2.653,0-4.956,1.151-4.956,3.904C75.243,49.635,88.66,47.783,88.66,56.193z M114.738,57.895
	c-0.451-0.7-1.001-0.801-1.652-0.3c-1.201,1.001-3.604,2.653-7.109,2.653c-5.557,0-9.862-4.155-9.862-10.112
	c0-6.008,4.305-10.163,9.812-10.163c3.053,0,5.256,1.452,6.358,2.303c0.701,0.451,1.251,0.451,1.702-0.25l0.35-0.551
	c0.501-0.651,0.451-1.251-0.15-1.702c-1.251-1.001-4.055-2.853-8.361-2.853c-7.459,0-13.216,5.456-13.216,13.216
	c0,7.809,5.707,13.166,13.216,13.166c4.656,0,7.659-2.153,8.961-3.204c0.551-0.5,0.701-1.051,0.301-1.702L114.738,57.895z
	 M140.343,37.52h-0.952c-0.801,0-1.251,0.451-1.251,1.251v10.813c0,5.457-3.554,10.513-9.311,10.513
	c-4.856,0-5.457-3.504-5.457-7.459V38.772c0-0.801-0.45-1.251-1.251-1.251h-0.951c-0.802,0-1.202,0.451-1.202,1.251V53.54
	c0,6.558,2.453,9.762,8.411,9.762c5.557,0,8.961-4.105,9.913-6.558h0.1c0,0-0.15,0.801-0.15,1.802v2.904
	c0,0.801,0.4,1.251,1.201,1.251h0.901c0.801,0,1.201-0.451,1.201-1.251V38.772C141.545,37.971,141.144,37.52,140.343,37.52z
	 M153.931,59.798c-1.102-0.151-2.603-0.501-2.603-3.655V28.759c0-0.801-0.451-1.251-1.251-1.251h-0.952
	c-0.801,0-1.201,0.45-1.201,1.251v27.985c0,5.507,3.704,6.158,5.757,6.158c0.951,0,1.302-0.501,1.302-1.251v-0.751
	C154.982,60.149,154.531,59.848,153.931,59.798z M182.961,50.136c0,7.96-4.755,13.166-11.314,13.166c-6.107,0-8.31-5.106-8.31-5.106
	h-0.1c0,0,0.2,0.901,0.2,2.203v11.064c0,0.801-0.451,1.251-1.251,1.251h-0.952c-0.801,0-1.201-0.451-1.201-1.251V38.772
	c0-0.801,0.4-1.251,1.201-1.251h0.801c0.802,0,1.202,0.451,1.202,1.151v1.803c0,1.001-0.151,1.702-0.151,1.702h0.1
	c0,0,2.153-5.256,8.811-5.256C178.756,36.92,182.961,42.326,182.961,50.136z M179.457,50.136c0-6.158-3.304-10.113-7.96-10.113
	c-4.205,0-8.16,3.004-8.16,10.163c0,5.056,2.804,10.062,7.96,10.062C175.803,60.248,179.457,56.544,179.457,50.136z M198.139,59.798
	c-1.953-0.1-5.507-0.802-5.507-6.608V40.574h5.106c0.802,0,1.252-0.401,1.252-1.202v-0.4c0-0.801-0.451-1.251-1.252-1.251h-5.106
	v-5.907c0-0.801-0.4-1.251-1.201-1.251h-0.901c-0.801,0-1.251,0.451-1.251,1.251v5.907h-2.153c-0.801,0-1.201,0.451-1.201,1.251v0.4
	c0,0.801,0.4,1.202,1.201,1.202h2.102V53.64c0,5.908,3.355,9.262,8.861,9.262c1.001,0,1.401-0.4,1.401-1.201V61.05
	C199.49,60.199,199.14,59.898,198.139,59.798z"/> </symbol>

<symbol viewBox="668.082 17.641 200 64.719" id="sculptLogo--orange"> <path style="fill:#ff9254" d="M715.391,25.368c-1.008-0.758-2.092-1.413-3.232-1.955c-8.948-4.253-18.427-4.235-27.387-0.178
	c-8.949,4.053-16.229,15.492-16.229,25.502v27.056c0,2.209,1.791,4,4,4h27.056c10.01,0,21.45-7.28,25.502-16.229
	C731.308,49.857,727.936,34.81,715.391,25.368z M720.235,61.36c-3.214,7.095-12.662,13.092-20.635,13.092h-24.716
	c-0.552,0-1-0.448-1-1V48.737c0-7.973,5.995-17.423,13.092-20.636c7.567-3.426,15.47-3.435,22.845,0.173
	c0.856,0.419,1.679,0.922,2.445,1.489C722.651,37.469,725.412,49.927,720.235,61.36z M691.496,55.469
	c0.32-0.463,0.955-0.567,1.413-0.238c1.041,0.748,2.967,1.888,5.032,1.888c1.229,0,2.56-0.479,2.56-1.946
	c0-2.903-10.995-2.8-10.995-10.311c0-4.506,3.789-7.477,8.638-7.477c3.737,0,6.128,1.396,7.2,2.204
	c0.393,0.296,0.517,0.826,0.291,1.263l-1.627,3.144c-0.274,0.529-0.941,0.698-1.441,0.373c-0.975-0.632-2.637-1.489-4.489-1.489
	c-1.229,0-2.596,0.547-2.596,1.912c0,3.073,10.995,2.526,10.995,10.243c0,4.063-3.109,7.581-8.604,7.581
	c-4.189,0-7.011-1.858-8.229-2.86c-0.403-0.331-0.481-0.912-0.185-1.341L691.496,55.469z"/> <path style="fill:#ff9254" d="M756.791,56.193c0,4.156-3.505,7.109-8.511,7.109c-4.405,0-7.259-1.852-8.51-2.903
	c-0.601-0.451-0.651-1.051-0.2-1.702l0.4-0.501c0.451-0.601,1.002-0.651,1.702-0.2c1.102,0.851,3.404,2.303,6.658,2.303
	c2.804,0,5.106-1.401,5.106-4.055c0-5.657-13.467-3.955-13.467-12.265c0-4.656,3.955-7.059,8.561-7.059
	c3.604,0,5.858,1.302,6.909,2.052c0.651,0.4,0.751,1.001,0.35,1.652l-0.35,0.551c-0.4,0.701-1.001,0.751-1.702,0.35
	c-0.952-0.651-2.753-1.602-5.407-1.602c-2.653,0-4.956,1.151-4.956,3.904C743.373,49.635,756.791,47.783,756.791,56.193z
	 M782.868,57.895c-0.451-0.7-1.001-0.801-1.652-0.3c-1.201,1.001-3.604,2.653-7.109,2.653c-5.557,0-9.862-4.155-9.862-10.112
	c0-6.008,4.305-10.163,9.812-10.163c3.053,0,5.256,1.452,6.358,2.303c0.701,0.451,1.251,0.451,1.702-0.25l0.35-0.551
	c0.501-0.651,0.451-1.251-0.15-1.702c-1.251-1.001-4.055-2.853-8.361-2.853c-7.459,0-13.216,5.456-13.216,13.216
	c0,7.809,5.707,13.166,13.216,13.166c4.656,0,7.659-2.153,8.961-3.204c0.551-0.5,0.701-1.051,0.301-1.702L782.868,57.895z
	 M808.474,37.52h-0.952c-0.801,0-1.251,0.451-1.251,1.251v10.813c0,5.457-3.554,10.513-9.311,10.513
	c-4.856,0-5.457-3.504-5.457-7.459V38.772c0-0.801-0.45-1.251-1.251-1.251H789.3c-0.802,0-1.202,0.451-1.202,1.251V53.54
	c0,6.558,2.453,9.762,8.411,9.762c5.557,0,8.961-4.105,9.913-6.558h0.1c0,0-0.15,0.801-0.15,1.802v2.904
	c0,0.801,0.4,1.251,1.201,1.251h0.901c0.801,0,1.201-0.451,1.201-1.251V38.772C809.675,37.971,809.275,37.52,808.474,37.52z
	 M822.061,59.798c-1.102-0.151-2.603-0.501-2.603-3.655V28.759c0-0.801-0.451-1.251-1.251-1.251h-0.952
	c-0.801,0-1.201,0.45-1.201,1.251v27.985c0,5.507,3.704,6.158,5.757,6.158c0.951,0,1.302-0.501,1.302-1.251v-0.751
	C823.112,60.149,822.662,59.848,822.061,59.798z M851.092,50.136c0,7.96-4.755,13.166-11.314,13.166c-6.107,0-8.31-5.106-8.31-5.106
	h-0.1c0,0,0.2,0.901,0.2,2.203v11.064c0,0.801-0.451,1.251-1.251,1.251h-0.952c-0.801,0-1.201-0.451-1.201-1.251V38.772
	c0-0.801,0.4-1.251,1.201-1.251h0.801c0.802,0,1.202,0.451,1.202,1.151v1.803c0,1.001-0.151,1.702-0.151,1.702h0.101
	c0,0,2.153-5.256,8.811-5.256C846.887,36.92,851.092,42.326,851.092,50.136z M847.588,50.136c0-6.158-3.305-10.113-7.96-10.113
	c-4.205,0-8.16,3.004-8.16,10.163c0,5.056,2.804,10.062,7.96,10.062C843.933,60.248,847.588,56.544,847.588,50.136z M866.27,59.798
	c-1.953-0.1-5.508-0.802-5.508-6.608V40.574h5.106c0.802,0,1.252-0.401,1.252-1.202v-0.4c0-0.801-0.451-1.251-1.252-1.251h-5.106
	v-5.907c0-0.801-0.4-1.251-1.201-1.251h-0.901c-0.801,0-1.251,0.451-1.251,1.251v5.907h-2.153c-0.801,0-1.201,0.451-1.201,1.251v0.4
	c0,0.801,0.4,1.202,1.201,1.202h2.102V53.64c0,5.908,3.355,9.262,8.861,9.262c1.001,0,1.401-0.4,1.401-1.201V61.05
	C867.621,60.199,867.271,59.898,866.27,59.798z"/> </symbol>

<symbol viewBox="448.532 17.641 200 64.719" id="sculptLogo--white"> <path style="fill:#FFFFFF" d="M495.841,25.368c-1.008-0.758-2.092-1.413-3.232-1.955c-8.948-4.253-18.427-4.235-27.387-0.178
	c-8.949,4.053-16.229,15.492-16.229,25.502v27.056c0,2.209,1.791,4,4,4h27.056c10.01,0,21.45-7.28,25.502-16.229
	C511.758,49.857,508.387,34.81,495.841,25.368z M500.685,61.36c-3.214,7.095-12.662,13.092-20.635,13.092h-24.716
	c-0.552,0-1-0.448-1-1V48.737c0-7.973,5.995-17.423,13.092-20.636c7.567-3.426,15.47-3.435,22.845,0.173
	c0.856,0.419,1.679,0.922,2.445,1.489C503.101,37.469,505.862,49.927,500.685,61.36z M471.946,55.469
	c0.32-0.463,0.955-0.567,1.413-0.238c1.041,0.748,2.967,1.888,5.032,1.888c1.229,0,2.56-0.479,2.56-1.946
	c0-2.903-10.995-2.8-10.995-10.311c0-4.506,3.789-7.477,8.638-7.477c3.737,0,6.128,1.396,7.2,2.204
	c0.393,0.296,0.517,0.826,0.291,1.263l-1.627,3.144c-0.274,0.529-0.941,0.698-1.441,0.373c-0.975-0.632-2.637-1.489-4.489-1.489
	c-1.229,0-2.596,0.547-2.596,1.912c0,3.073,10.995,2.526,10.995,10.243c0,4.063-3.109,7.581-8.604,7.581
	c-4.189,0-7.012-1.858-8.229-2.86c-0.403-0.331-0.481-0.912-0.185-1.341L471.946,55.469z"/> <path style="fill:#FFFFFF" d="M537.241,56.193c0,4.156-3.505,7.109-8.511,7.109c-4.405,0-7.259-1.852-8.51-2.903
	c-0.601-0.451-0.651-1.051-0.2-1.702l0.4-0.501c0.451-0.601,1.002-0.651,1.702-0.2c1.102,0.851,3.404,2.303,6.658,2.303
	c2.804,0,5.106-1.401,5.106-4.055c0-5.657-13.467-3.955-13.467-12.265c0-4.656,3.955-7.059,8.561-7.059
	c3.604,0,5.858,1.302,6.909,2.052c0.651,0.4,0.751,1.001,0.35,1.652l-0.35,0.551c-0.4,0.701-1.001,0.751-1.702,0.35
	c-0.952-0.651-2.753-1.602-5.407-1.602c-2.653,0-4.956,1.151-4.956,3.904C523.823,49.635,537.241,47.783,537.241,56.193z
	 M563.318,57.895c-0.451-0.7-1.001-0.801-1.652-0.3c-1.201,1.001-3.604,2.653-7.109,2.653c-5.557,0-9.862-4.155-9.862-10.112
	c0-6.008,4.305-10.163,9.812-10.163c3.053,0,5.256,1.452,6.358,2.303c0.701,0.451,1.251,0.451,1.702-0.25l0.35-0.551
	c0.501-0.651,0.451-1.251-0.15-1.702c-1.251-1.001-4.055-2.853-8.361-2.853c-7.459,0-13.216,5.456-13.216,13.216
	c0,7.809,5.707,13.166,13.216,13.166c4.656,0,7.659-2.153,8.961-3.204c0.551-0.5,0.701-1.051,0.301-1.702L563.318,57.895z
	 M588.924,37.52h-0.952c-0.801,0-1.251,0.451-1.251,1.251v10.813c0,5.457-3.554,10.513-9.311,10.513
	c-4.856,0-5.457-3.504-5.457-7.459V38.772c0-0.801-0.45-1.251-1.251-1.251h-0.951c-0.802,0-1.202,0.451-1.202,1.251V53.54
	c0,6.558,2.453,9.762,8.411,9.762c5.557,0,8.961-4.105,9.913-6.558h0.1c0,0-0.15,0.801-0.15,1.802v2.904
	c0,0.801,0.4,1.251,1.201,1.251h0.901c0.801,0,1.201-0.451,1.201-1.251V38.772C590.125,37.971,589.725,37.52,588.924,37.52z
	 M602.511,59.798c-1.102-0.151-2.603-0.501-2.603-3.655V28.759c0-0.801-0.451-1.251-1.251-1.251h-0.952
	c-0.801,0-1.201,0.45-1.201,1.251v27.985c0,5.507,3.704,6.158,5.757,6.158c0.951,0,1.302-0.501,1.302-1.251v-0.751
	C603.563,60.149,603.112,59.848,602.511,59.798z M631.542,50.136c0,7.96-4.755,13.166-11.314,13.166c-6.107,0-8.31-5.106-8.31-5.106
	h-0.1c0,0,0.2,0.901,0.2,2.203v11.064c0,0.801-0.451,1.251-1.251,1.251h-0.952c-0.801,0-1.201-0.451-1.201-1.251V38.772
	c0-0.801,0.4-1.251,1.201-1.251h0.801c0.802,0,1.202,0.451,1.202,1.151v1.803c0,1.001-0.151,1.702-0.151,1.702h0.1
	c0,0,2.153-5.256,8.811-5.256C627.337,36.92,631.542,42.326,631.542,50.136z M628.038,50.136c0-6.158-3.305-10.113-7.96-10.113
	c-4.205,0-8.16,3.004-8.16,10.163c0,5.056,2.804,10.062,7.96,10.062C624.383,60.248,628.038,56.544,628.038,50.136z M646.72,59.798
	c-1.953-0.1-5.507-0.802-5.507-6.608V40.574h5.106c0.802,0,1.252-0.401,1.252-1.202v-0.4c0-0.801-0.451-1.251-1.252-1.251h-5.106
	v-5.907c0-0.801-0.4-1.251-1.201-1.251h-0.901c-0.801,0-1.251,0.451-1.251,1.251v5.907h-2.153c-0.801,0-1.201,0.451-1.201,1.251v0.4
	c0,0.801,0.4,1.202,1.201,1.202h2.102V53.64c0,5.908,3.355,9.262,8.861,9.262c1.001,0,1.401-0.4,1.401-1.201V61.05
	C648.071,60.199,647.721,59.898,646.72,59.798z"/> </symbol>

<symbol viewBox="223.698 17.641 200 64.719" id="sculptLogo"> <path style="fill:#ff9254" d="M271.007,25.368c-1.008-0.758-2.092-1.413-3.232-1.955c-8.948-4.253-18.427-4.235-27.387-0.178
	c-8.949,4.053-16.229,15.492-16.229,25.502v27.056c0,2.209,1.791,4,4,4h27.056c10.01,0,21.45-7.28,25.502-16.229
	C286.924,49.857,283.553,34.81,271.007,25.368z M275.852,61.36c-3.214,7.095-12.662,13.092-20.635,13.092h-24.716
	c-0.552,0-1-0.448-1-1V48.737c0-7.973,5.995-17.423,13.092-20.636c7.567-3.426,15.47-3.435,22.845,0.173
	c0.856,0.419,1.679,0.922,2.445,1.489C278.268,37.469,281.028,49.927,275.852,61.36z M247.112,55.469
	c0.32-0.463,0.955-0.567,1.413-0.238c1.041,0.748,2.967,1.888,5.032,1.888c1.229,0,2.56-0.479,2.56-1.946
	c0-2.903-10.995-2.8-10.995-10.311c0-4.506,3.789-7.477,8.638-7.477c3.737,0,6.128,1.396,7.2,2.204
	c0.393,0.296,0.517,0.826,0.291,1.263l-1.627,3.144c-0.274,0.529-0.941,0.698-1.441,0.373c-0.975-0.632-2.637-1.489-4.489-1.489
	c-1.229,0-2.596,0.547-2.596,1.912c0,3.073,10.995,2.526,10.995,10.243c0,4.063-3.109,7.581-8.604,7.581
	c-4.189,0-7.012-1.858-8.229-2.86c-0.403-0.331-0.481-0.912-0.185-1.341L247.112,55.469z"/> <path style="fill:#33333d" d="M312.407,56.193c0,4.156-3.505,7.109-8.511,7.109c-4.405,0-7.259-1.852-8.51-2.903
	c-0.601-0.451-0.651-1.051-0.2-1.702l0.4-0.501c0.451-0.601,1.002-0.651,1.702-0.2c1.102,0.851,3.404,2.303,6.658,2.303
	c2.804,0,5.106-1.401,5.106-4.055c0-5.657-13.467-3.955-13.467-12.265c0-4.656,3.955-7.059,8.561-7.059
	c3.604,0,5.858,1.302,6.909,2.052c0.651,0.4,0.751,1.001,0.35,1.652l-0.35,0.551c-0.4,0.701-1.001,0.751-1.702,0.35
	c-0.952-0.651-2.753-1.602-5.407-1.602c-2.653,0-4.956,1.151-4.956,3.904C298.99,49.635,312.407,47.783,312.407,56.193z
	 M338.484,57.895c-0.451-0.7-1.001-0.801-1.652-0.3c-1.201,1.001-3.604,2.653-7.109,2.653c-5.557,0-9.862-4.155-9.862-10.112
	c0-6.008,4.305-10.163,9.812-10.163c3.053,0,5.256,1.452,6.358,2.303c0.701,0.451,1.251,0.451,1.702-0.25l0.35-0.551
	c0.501-0.651,0.451-1.251-0.15-1.702c-1.251-1.001-4.055-2.853-8.361-2.853c-7.459,0-13.216,5.456-13.216,13.216
	c0,7.809,5.707,13.166,13.216,13.166c4.656,0,7.659-2.153,8.961-3.204c0.551-0.5,0.701-1.051,0.301-1.702L338.484,57.895z
	 M364.09,37.52h-0.952c-0.801,0-1.251,0.451-1.251,1.251v10.813c0,5.457-3.554,10.513-9.311,10.513
	c-4.856,0-5.457-3.504-5.457-7.459V38.772c0-0.801-0.45-1.251-1.251-1.251h-0.951c-0.802,0-1.202,0.451-1.202,1.251V53.54
	c0,6.558,2.453,9.762,8.411,9.762c5.557,0,8.961-4.105,9.913-6.558h0.1c0,0-0.15,0.801-0.15,1.802v2.904
	c0,0.801,0.4,1.251,1.201,1.251h0.901c0.801,0,1.201-0.451,1.201-1.251V38.772C365.291,37.971,364.891,37.52,364.09,37.52z
	 M377.677,59.798c-1.101-0.151-2.603-0.501-2.603-3.655V28.759c0-0.801-0.451-1.251-1.251-1.251h-0.952
	c-0.801,0-1.201,0.45-1.201,1.251v27.985c0,5.507,3.704,6.158,5.757,6.158c0.951,0,1.302-0.501,1.302-1.251v-0.751
	C378.729,60.149,378.278,59.848,377.677,59.798z M406.708,50.136c0,7.96-4.755,13.166-11.314,13.166c-6.107,0-8.31-5.106-8.31-5.106
	h-0.1c0,0,0.2,0.901,0.2,2.203v11.064c0,0.801-0.451,1.251-1.251,1.251h-0.952c-0.801,0-1.201-0.451-1.201-1.251V38.772
	c0-0.801,0.4-1.251,1.201-1.251h0.801c0.802,0,1.202,0.451,1.202,1.151v1.803c0,1.001-0.151,1.702-0.151,1.702h0.1
	c0,0,2.153-5.256,8.811-5.256C402.503,36.92,406.708,42.326,406.708,50.136z M403.204,50.136c0-6.158-3.305-10.113-7.96-10.113
	c-4.205,0-8.16,3.004-8.16,10.163c0,5.056,2.804,10.062,7.96,10.062C399.549,60.248,403.204,56.544,403.204,50.136z M421.886,59.798
	c-1.953-0.1-5.507-0.802-5.507-6.608V40.574h5.106c0.802,0,1.252-0.401,1.252-1.202v-0.4c0-0.801-0.451-1.251-1.252-1.251h-5.106
	v-5.907c0-0.801-0.4-1.251-1.201-1.251h-0.901c-0.801,0-1.251,0.451-1.251,1.251v5.907h-2.153c-0.801,0-1.201,0.451-1.201,1.251v0.4
	c0,0.801,0.4,1.202,1.201,1.202h2.103V53.64c0,5.908,3.355,9.262,8.861,9.262c1.001,0,1.401-0.4,1.401-1.201V61.05
	C423.237,60.199,422.887,59.898,421.886,59.798z"/> </symbol>

<symbol viewBox="154.266 97.988 59.588 59.586" id="sculptMark--dark"> <path style="fill:#33333d" d="M201.112,103.147c-1.007-0.758-2.09-1.412-3.228-1.953c-8.949-4.254-18.428-4.237-27.389-0.179
	c-8.949,4.053-16.229,15.492-16.229,25.502v27.056c0,2.209,1.791,4,4,4h27.056c10.01,0,21.45-7.28,25.502-16.229
	C217.031,127.637,213.659,112.589,201.112,103.147z M205.958,139.14c-3.214,7.095-12.662,13.092-20.635,13.092h-24.716
	c-0.552,0-1-0.448-1-1v-24.715c0-7.973,5.995-17.423,13.092-20.636c7.567-3.426,15.47-3.435,22.845,0.173
	c0.856,0.419,1.679,0.922,2.445,1.489C208.374,115.249,211.135,127.707,205.958,139.14z M177.219,133.249
	c0.32-0.463,0.955-0.567,1.413-0.238c1.041,0.748,2.967,1.888,5.032,1.888c1.229,0,2.56-0.479,2.56-1.946
	c0-2.903-10.995-2.8-10.995-10.311c0-4.506,3.789-7.477,8.638-7.477c3.737,0,6.128,1.396,7.2,2.204
	c0.393,0.296,0.517,0.826,0.291,1.263l-1.627,3.144c-0.274,0.529-0.941,0.698-1.441,0.373c-0.975-0.632-2.637-1.489-4.489-1.489
	c-1.229,0-2.596,0.547-2.596,1.912c0,3.073,10.995,2.526,10.995,10.243c0,4.063-3.109,7.581-8.604,7.581
	c-4.189,0-7.012-1.858-8.229-2.86c-0.403-0.331-0.481-0.912-0.185-1.34L177.219,133.249z"/> </symbol>

<symbol viewBox="75.53 97.988 59.588 59.586" id="sculptMark--orange"> <path style="fill:#ff9254" d="M122.376,103.147c-1.007-0.758-2.09-1.412-3.228-1.953c-8.949-4.254-18.428-4.237-27.389-0.179
	c-8.949,4.053-16.229,15.492-16.229,25.502v27.056c0,2.209,1.791,4,4,4h27.056c10.01,0,21.45-7.28,25.502-16.229
	C138.295,127.637,134.923,112.589,122.376,103.147z M127.222,139.14c-3.214,7.095-12.662,13.092-20.635,13.092H81.871
	c-0.552,0-1-0.448-1-1v-24.715c0-7.973,5.995-17.423,13.092-20.636c7.567-3.426,15.47-3.435,22.845,0.173
	c0.856,0.419,1.679,0.922,2.445,1.489C129.638,115.249,132.399,127.707,127.222,139.14z M98.483,133.249
	c0.32-0.463,0.955-0.567,1.413-0.238c1.041,0.748,2.967,1.888,5.032,1.888c1.229,0,2.56-0.479,2.56-1.946
	c0-2.903-10.995-2.8-10.995-10.311c0-4.506,3.789-7.477,8.638-7.477c3.737,0,6.128,1.396,7.2,2.204
	c0.393,0.296,0.517,0.826,0.291,1.263l-1.627,3.144c-0.274,0.529-0.941,0.698-1.441,0.373c-0.975-0.632-2.637-1.489-4.489-1.489
	c-1.229,0-2.596,0.547-2.596,1.912c0,3.073,10.995,2.526,10.995,10.243c0,4.063-3.109,7.581-8.604,7.581
	c-4.189,0-7.012-1.858-8.229-2.86c-0.403-0.331-0.481-0.912-0.185-1.34L98.483,133.249z"/> </symbol>

<symbol viewBox="0.413 97.988 59.588 59.586" id="sculptMark--white"> <path style="fill:#FFFFFF" d="M47.258,103.147c-1.007-0.758-2.09-1.412-3.228-1.953c-8.949-4.254-18.428-4.237-27.389-0.179
	c-8.949,4.053-16.229,15.492-16.229,25.502v27.056c0,2.209,1.791,4,4,4h27.056c10.01,0,21.45-7.28,25.502-16.229
	C63.178,127.637,59.806,112.589,47.258,103.147z M52.105,139.14c-3.214,7.095-12.662,13.092-20.635,13.092H6.754
	c-0.552,0-1-0.448-1-1v-24.715c0-7.973,5.995-17.423,13.092-20.636c7.567-3.426,15.47-3.435,22.845,0.173
	c0.856,0.419,1.679,0.922,2.445,1.489C54.521,115.249,57.281,127.707,52.105,139.14z M23.365,133.249
	c0.32-0.463,0.955-0.567,1.413-0.238c1.041,0.748,2.967,1.888,5.032,1.888c1.229,0,2.56-0.479,2.56-1.946
	c0-2.903-10.995-2.8-10.995-10.311c0-4.506,3.789-7.477,8.638-7.477c3.737,0,6.128,1.396,7.2,2.204
	c0.393,0.296,0.517,0.826,0.291,1.263l-1.627,3.144c-0.274,0.529-0.941,0.698-1.441,0.373c-0.975-0.632-2.637-1.489-4.489-1.489
	c-1.229,0-2.596,0.547-2.596,1.912c0,3.073,10.995,2.526,10.995,10.243c0,4.063-3.109,7.581-8.604,7.581
	c-4.189,0-7.012-1.858-8.229-2.86c-0.403-0.331-0.481-0.912-0.185-1.34L23.365,133.249z"/> </symbol></svg>
