<svg viewBox="0 0 100 100" xmlns="http://www.w3.org/2000/svg" style="display:none">

<symbol viewBox="0 17.641 200 64.719" id="sculptLogo--light"><title>sculptLogo--light</title> <g> <path style="fill:#FFFFFF" d="M47.288,25.389c-1.014-0.764-2.109-1.43-3.256-1.975c-8.949-4.255-18.429-4.238-27.39-0.18
		C7.693,27.287,0.413,38.727,0.413,48.737v31.056h31.056c10.01,0,21.45-7.28,25.502-16.229
		C63.173,49.868,59.811,34.832,47.288,25.389z M52.105,61.36c-3.214,7.095-12.662,13.092-20.635,13.092H5.754V48.737
		c0-7.973,5.995-17.423,13.092-20.636c7.567-3.426,15.47-3.435,22.845,0.173c0.856,0.419,1.679,0.922,2.445,1.489
		C54.521,37.469,57.281,49.927,52.105,61.36z M23.971,54.592c0,0,2.764,2.526,5.839,2.526c1.229,0,2.56-0.479,2.56-1.946
		c0-2.903-10.995-2.8-10.995-10.311c0-4.506,3.789-7.477,8.638-7.477c5.26,0,7.854,2.766,7.854,2.766l-2.526,4.881
		c0,0-2.458-2.151-5.394-2.151c-1.229,0-2.596,0.547-2.596,1.912c0,3.073,10.995,2.526,10.995,10.243
		c0,4.063-3.109,7.581-8.604,7.581c-5.735,0-8.91-3.484-8.91-3.484L23.971,54.592z"/> <g> <path style="fill:#33333d" d="M72.777,56.822c0,0,2.696,2.937,7.221,2.937c2.601,0,4.864-1.299,4.864-3.852
			c0-5.295-13.047-3.997-13.047-11.891c0-4.333,3.898-6.693,8.28-6.693c5.104,0,7.462,2.649,7.462,2.649l-1.492,2.504
			c0,0-2.071-2.216-6.068-2.216c-2.455,0-4.813,1.059-4.813,3.755c0,5.343,13.047,3.898,13.047,11.891
			c0,3.949-3.418,6.788-8.28,6.788c-5.874,0-8.954-3.514-8.954-3.514L72.777,56.822z"/> <path style="fill:#33333d" d="M105.317,37.324c5.922,0,8.859,3.465,8.859,3.465l-1.686,2.455c0,0-2.696-2.935-7.076-2.935
			c-5.295,0-9.435,3.947-9.435,9.725c0,5.682,4.188,9.725,9.531,9.725c4.91,0,7.752-3.418,7.752-3.418l1.492,2.552
			c0,0-3.275,3.803-9.436,3.803c-7.171,0-12.708-5.151-12.708-12.662C92.609,42.572,98.193,37.324,105.317,37.324z"/> <path style="fill:#33333d" d="M120.381,37.902h3.275v14.54c0,3.803,0.577,7.173,5.248,7.173c5.536,0,8.954-4.862,8.954-10.11V37.902
			h3.273v24.215h-3.178v-3.611c0-1.059,0.097-1.925,0.097-1.925h-0.097c-0.963,2.36-4.139,6.114-9.484,6.114
			c-5.682,0-8.088-3.081-8.088-9.387L120.381,37.902L120.381,37.902z"/> <path style="fill:#33333d" d="M148.783,28.274h3.273v27.394c0,3.177,1.445,3.659,2.698,3.659c0.433,0,0.818-0.049,0.818-0.049v2.937
			c0,0-0.577,0.097-1.204,0.097c-2.024,0-5.584-0.626-5.584-5.922V28.274H148.783z"/> <path style="fill:#33333d" d="M160.912,37.902h3.129v2.36c0,1.059-0.097,1.878-0.097,1.878h0.097c0,0,1.975-4.815,8.377-4.815
			c6.499,0,10.543,5.199,10.543,12.71c0,7.655-4.576,12.662-10.832,12.662c-5.825,0-7.944-4.621-7.944-4.621h-0.095
			c0,0,0.097,0.868,0.097,2.119v11.555h-3.275V37.902z M171.793,59.808c4.285,0,7.8-3.611,7.8-9.774
			c0-5.922-3.129-9.725-7.657-9.725c-4.042,0-7.847,2.888-7.847,9.772C164.09,54.946,166.785,59.808,171.793,59.808z"/> <path style="fill:#33333d" d="M190.178,40.936h-3.177V38.19h3.224v-6.98h3.226v6.98h6.066v2.745h-6.066v12.036
			c0,5.681,3.609,6.404,5.44,6.404c0.674,0,1.107-0.097,1.107-0.097v2.937c0,0-0.53,0.097-1.396,0.097
			c-2.793,0-8.426-0.915-8.426-9.003V40.936H190.178z"/> </g> </g> </symbol>

<symbol viewBox="668.082 17.641 200 64.719" id="sculptLogo--orange"><title>sculptLogo--orange</title> <g> <path style="fill:#ff9254;" d="M715.37,25.389c-1.014-0.764-2.109-1.43-3.256-1.975c-8.949-4.255-18.429-4.238-27.39-0.18
		c-8.949,4.053-16.229,15.492-16.229,25.502v31.056h31.056c10.01,0,21.45-7.28,25.502-16.229
		C731.255,49.868,727.893,34.832,715.37,25.389z M720.187,61.36c-3.214,7.095-12.662,13.092-20.635,13.092h-25.716V48.737
		c0-7.973,5.995-17.423,13.092-20.636c7.567-3.426,15.47-3.435,22.845,0.173c0.856,0.419,1.679,0.922,2.445,1.489
		C722.603,37.469,725.363,49.927,720.187,61.36z M692.053,54.592c0,0,2.764,2.526,5.839,2.526c1.229,0,2.56-0.479,2.56-1.946
		c0-2.903-10.995-2.8-10.995-10.311c0-4.506,3.789-7.477,8.638-7.477c5.26,0,7.854,2.766,7.854,2.766l-2.526,4.881
		c0,0-2.458-2.151-5.394-2.151c-1.229,0-2.596,0.547-2.596,1.912c0,3.073,10.995,2.526,10.995,10.243
		c0,4.063-3.109,7.581-8.604,7.581c-5.735,0-8.91-3.484-8.91-3.484L692.053,54.592z"/> <g> <path style="fill:#ff9254;" d="M740.859,56.822c0,0,2.696,2.937,7.221,2.937c2.601,0,4.864-1.299,4.864-3.852
			c0-5.295-13.047-3.997-13.047-11.891c0-4.333,3.898-6.693,8.28-6.693c5.104,0,7.462,2.649,7.462,2.649l-1.492,2.504
			c0,0-2.071-2.216-6.068-2.216c-2.455,0-4.813,1.059-4.813,3.755c0,5.343,13.047,3.898,13.047,11.891
			c0,3.949-3.418,6.788-8.28,6.788c-5.874,0-8.954-3.514-8.954-3.514L740.859,56.822z"/> <path style="fill:#ff9254;" d="M773.399,37.324c5.922,0,8.859,3.465,8.859,3.465l-1.686,2.455c0,0-2.696-2.935-7.076-2.935
			c-5.295,0-9.435,3.947-9.435,9.725c0,5.682,4.188,9.725,9.531,9.725c4.91,0,7.752-3.418,7.752-3.418l1.492,2.552
			c0,0-3.275,3.803-9.436,3.803c-7.171,0-12.708-5.151-12.708-12.662C760.691,42.572,766.275,37.324,773.399,37.324z"/> <path style="fill:#ff9254;" d="M788.463,37.902h3.275v14.54c0,3.803,0.577,7.173,5.248,7.173c5.536,0,8.954-4.862,8.954-10.11V37.902
			h3.273v24.215h-3.178v-3.611c0-1.059,0.097-1.925,0.097-1.925h-0.097c-0.963,2.36-4.139,6.114-9.484,6.114
			c-5.682,0-8.088-3.081-8.088-9.387V37.902L788.463,37.902z"/> <path style="fill:#ff9254;" d="M816.865,28.274h3.273v27.394c0,3.177,1.445,3.659,2.698,3.659c0.433,0,0.818-0.049,0.818-0.049v2.937
			c0,0-0.577,0.097-1.204,0.097c-2.024,0-5.584-0.626-5.584-5.922V28.274H816.865z"/> <path style="fill:#ff9254;" d="M828.994,37.902h3.129v2.36c0,1.059-0.097,1.878-0.097,1.878h0.097c0,0,1.974-4.815,8.377-4.815
			c6.499,0,10.543,5.199,10.543,12.71c0,7.655-4.576,12.662-10.832,12.662c-5.825,0-7.944-4.621-7.944-4.621h-0.095
			c0,0,0.097,0.868,0.097,2.119v11.555h-3.275V37.902z M839.875,59.808c4.285,0,7.8-3.611,7.8-9.774
			c0-5.922-3.129-9.725-7.657-9.725c-4.042,0-7.847,2.888-7.847,9.772C832.172,54.946,834.867,59.808,839.875,59.808z"/> <path style="fill:#ff9254;" d="M858.26,40.936h-3.177V38.19h3.224v-6.98h3.226v6.98h6.066v2.745h-6.066v12.036
			c0,5.681,3.609,6.404,5.44,6.404c0.674,0,1.107-0.097,1.107-0.097v2.937c0,0-0.53,0.097-1.396,0.097
			c-2.793,0-8.426-0.915-8.426-9.003V40.936H858.26z"/> </g> </g> </symbol>

<symbol viewBox="448.532 17.641 200 64.719" id="sculptLogo--white"><title>sculptLogo--white</title> <g> <path style="fill:#FFFFFF" d="M495.82,25.389c-1.014-0.764-2.109-1.43-3.256-1.975c-8.949-4.255-18.429-4.238-27.39-0.18
		c-8.949,4.053-16.229,15.492-16.229,25.502v31.056H480c10.01,0,21.45-7.28,25.502-16.229
		C511.705,49.868,508.343,34.832,495.82,25.389z M500.637,61.36c-3.214,7.095-12.662,13.092-20.635,13.092h-25.716V48.737
		c0-7.973,5.995-17.423,13.092-20.636c7.567-3.426,15.47-3.435,22.845,0.173c0.856,0.419,1.679,0.922,2.445,1.489
		C503.053,37.469,505.813,49.927,500.637,61.36z M472.503,54.592c0,0,2.764,2.526,5.839,2.526c1.229,0,2.56-0.479,2.56-1.946
		c0-2.903-10.995-2.8-10.995-10.311c0-4.506,3.789-7.477,8.638-7.477c5.26,0,7.854,2.766,7.854,2.766l-2.526,4.881
		c0,0-2.458-2.151-5.394-2.151c-1.229,0-2.596,0.547-2.596,1.912c0,3.073,10.995,2.526,10.995,10.243
		c0,4.063-3.109,7.581-8.604,7.581c-5.735,0-8.91-3.484-8.91-3.484L472.503,54.592z"/> <g> <path style="fill:#FFFFFF" d="M521.309,56.822c0,0,2.696,2.937,7.221,2.937c2.601,0,4.864-1.299,4.864-3.852
			c0-5.295-13.047-3.997-13.047-11.891c0-4.333,3.898-6.693,8.28-6.693c5.104,0,7.462,2.649,7.462,2.649l-1.492,2.504
			c0,0-2.071-2.216-6.068-2.216c-2.455,0-4.813,1.059-4.813,3.755c0,5.343,13.047,3.898,13.047,11.891
			c0,3.949-3.418,6.788-8.28,6.788c-5.874,0-8.954-3.514-8.954-3.514L521.309,56.822z"/> <path style="fill:#FFFFFF" d="M553.849,37.324c5.922,0,8.859,3.465,8.859,3.465l-1.686,2.455c0,0-2.696-2.935-7.076-2.935
			c-5.295,0-9.435,3.947-9.435,9.725c0,5.682,4.188,9.725,9.531,9.725c4.91,0,7.752-3.418,7.752-3.418l1.492,2.552
			c0,0-3.275,3.803-9.436,3.803c-7.171,0-12.708-5.151-12.708-12.662C541.141,42.572,546.725,37.324,553.849,37.324z"/> <path style="fill:#FFFFFF" d="M568.913,37.902h3.275v14.54c0,3.803,0.577,7.173,5.248,7.173c5.536,0,8.954-4.862,8.954-10.11V37.902
			h3.273v24.215h-3.178v-3.611c0-1.059,0.097-1.925,0.097-1.925h-0.097c-0.963,2.36-4.139,6.114-9.484,6.114
			c-5.682,0-8.088-3.081-8.088-9.387L568.913,37.902L568.913,37.902z"/> <path style="fill:#FFFFFF" d="M597.315,28.274h3.273v27.394c0,3.177,1.445,3.659,2.698,3.659c0.433,0,0.818-0.049,0.818-0.049v2.937
			c0,0-0.577,0.097-1.204,0.097c-2.024,0-5.584-0.626-5.584-5.922V28.274H597.315z"/> <path style="fill:#FFFFFF" d="M609.444,37.902h3.129v2.36c0,1.059-0.097,1.878-0.097,1.878h0.097c0,0,1.975-4.815,8.377-4.815
			c6.499,0,10.543,5.199,10.543,12.71c0,7.655-4.576,12.662-10.832,12.662c-5.825,0-7.944-4.621-7.944-4.621h-0.095
			c0,0,0.097,0.868,0.097,2.119v11.555h-3.275V37.902z M620.325,59.808c4.285,0,7.8-3.611,7.8-9.774
			c0-5.922-3.129-9.725-7.657-9.725c-4.042,0-7.847,2.888-7.847,9.772C612.622,54.946,615.317,59.808,620.325,59.808z"/> <path style="fill:#FFFFFF" d="M638.711,40.936h-3.177V38.19h3.224v-6.98h3.226v6.98h6.066v2.745h-6.066v12.036
			c0,5.681,3.609,6.404,5.44,6.404c0.674,0,1.107-0.097,1.107-0.097v2.937c0,0-0.53,0.097-1.396,0.097
			c-2.793,0-8.426-0.915-8.426-9.003V40.936H638.711z"/> </g> </g> </symbol>

<symbol viewBox="223.698 17.641 200 64.719" id="sculptLogo"><title>sculptLogo</title> <g> <path style="fill:#ff9254" d="M270.987,25.389c-1.014-0.764-2.109-1.43-3.256-1.975c-8.949-4.255-18.429-4.238-27.39-0.18
		c-8.949,4.053-16.229,15.492-16.229,25.502v31.056h31.056c10.01,0,21.45-7.28,25.502-16.229
		C286.871,49.868,283.509,34.832,270.987,25.389z M275.803,61.36c-3.214,7.095-12.662,13.092-20.635,13.092h-25.716V48.737
		c0-7.973,5.995-17.423,13.092-20.636c7.567-3.426,15.47-3.435,22.845,0.173c0.856,0.419,1.679,0.922,2.445,1.489
		C278.219,37.469,280.98,49.927,275.803,61.36z M247.669,54.592c0,0,2.764,2.526,5.839,2.526c1.229,0,2.56-0.479,2.56-1.946
		c0-2.903-10.995-2.8-10.995-10.311c0-4.506,3.789-7.477,8.638-7.477c5.26,0,7.854,2.766,7.854,2.766l-2.526,4.881
		c0,0-2.458-2.151-5.394-2.151c-1.229,0-2.596,0.547-2.596,1.912c0,3.073,10.995,2.526,10.995,10.243
		c0,4.063-3.109,7.581-8.604,7.581c-5.735,0-8.91-3.484-8.91-3.484L247.669,54.592z"/> <g> <path style="fill:#33333d" d="M296.475,56.822c0,0,2.696,2.937,7.221,2.937c2.601,0,4.864-1.299,4.864-3.852
			c0-5.295-13.047-3.997-13.047-11.891c0-4.333,3.898-6.693,8.28-6.693c5.104,0,7.462,2.649,7.462,2.649l-1.492,2.504
			c0,0-2.071-2.216-6.068-2.216c-2.455,0-4.813,1.059-4.813,3.755c0,5.343,13.047,3.898,13.047,11.891
			c0,3.949-3.418,6.788-8.28,6.788c-5.874,0-8.954-3.514-8.954-3.514L296.475,56.822z"/> <path style="fill:#33333d" d="M329.015,37.324c5.922,0,8.859,3.465,8.859,3.465l-1.686,2.455c0,0-2.696-2.935-7.076-2.935
			c-5.295,0-9.435,3.947-9.435,9.725c0,5.682,4.188,9.725,9.531,9.725c4.91,0,7.752-3.418,7.752-3.418l1.492,2.552
			c0,0-3.275,3.803-9.436,3.803c-7.171,0-12.708-5.151-12.708-12.662C316.307,42.572,321.891,37.324,329.015,37.324z"/> <path style="fill:#33333d" d="M344.079,37.902h3.275v14.54c0,3.803,0.577,7.173,5.248,7.173c5.536,0,8.954-4.862,8.954-10.11V37.902
			h3.273v24.215h-3.178v-3.611c0-1.059,0.097-1.925,0.097-1.925h-0.097c-0.963,2.36-4.139,6.114-9.484,6.114
			c-5.682,0-8.088-3.081-8.088-9.387V37.902L344.079,37.902z"/> <path style="fill:#33333d" d="M372.481,28.274h3.273v27.394c0,3.177,1.445,3.659,2.698,3.659c0.433,0,0.818-0.049,0.818-0.049v2.937
			c0,0-0.577,0.097-1.204,0.097c-2.024,0-5.584-0.626-5.584-5.922V28.274H372.481z"/> <path style="fill:#33333d" d="M384.61,37.902h3.129v2.36c0,1.059-0.097,1.878-0.097,1.878h0.097c0,0,1.975-4.815,8.377-4.815
			c6.499,0,10.543,5.199,10.543,12.71c0,7.655-4.576,12.662-10.832,12.662c-5.825,0-7.944-4.621-7.944-4.621h-0.095
			c0,0,0.097,0.868,0.097,2.119v11.555h-3.275V37.902z M395.491,59.808c4.285,0,7.8-3.611,7.8-9.774
			c0-5.922-3.129-9.725-7.657-9.725c-4.042,0-7.847,2.888-7.847,9.772C387.789,54.946,390.483,59.808,395.491,59.808z"/> <path style="fill:#33333d" d="M413.877,40.936H410.7V38.19h3.224v-6.98h3.226v6.98h6.066v2.745h-6.066v12.036
			c0,5.681,3.609,6.404,5.44,6.404c0.674,0,1.107-0.097,1.107-0.097v2.937c0,0-0.53,0.097-1.396,0.097
			c-2.793,0-8.426-0.915-8.426-9.003V40.936H413.877z"/> </g> </g> </symbol>

<symbol viewBox="154.266 97.988 59.588 59.586" id="sculptMark--dark"><title>sculptMark--dark</title> <path style="fill:#33333d" d="M201.142,103.169c-1.014-0.764-2.109-1.43-3.256-1.975c-8.949-4.255-18.429-4.238-27.39-0.18
	c-8.949,4.053-16.229,15.492-16.229,25.502v31.056h31.056c10.01,0,21.45-7.28,25.502-16.229
	C217.026,127.648,213.665,112.612,201.142,103.169z M205.958,139.14c-3.214,7.095-12.662,13.092-20.635,13.092h-25.716v-25.715
	c0-7.973,5.995-17.423,13.092-20.636c7.567-3.426,15.47-3.435,22.845,0.173c0.856,0.419,1.679,0.922,2.445,1.489
	C208.374,115.249,211.135,127.707,205.958,139.14z M177.825,132.373c0,0,2.764,2.526,5.839,2.526c1.229,0,2.56-0.479,2.56-1.946
	c0-2.903-10.995-2.8-10.995-10.311c0-4.506,3.789-7.477,8.638-7.477c5.26,0,7.854,2.766,7.854,2.766l-2.526,4.881
	c0,0-2.458-2.151-5.394-2.151c-1.229,0-2.596,0.547-2.596,1.912c0,3.073,10.995,2.526,10.995,10.243
	c0,4.063-3.109,7.581-8.604,7.581c-5.735,0-8.91-3.484-8.91-3.484L177.825,132.373z"/> </symbol>

<symbol viewBox="75.53 97.988 59.588 59.586" id="sculptMark--orange"><title>sculptMark--orange</title> <path style="fill:#ff9254" d="M122.406,103.169c-1.014-0.764-2.109-1.43-3.256-1.975c-8.949-4.255-18.429-4.238-27.39-0.18
	c-8.949,4.053-16.229,15.492-16.229,25.502v31.056h31.056c10.01,0,21.45-7.28,25.502-16.229
	C138.29,127.648,134.929,112.612,122.406,103.169z M127.222,139.14c-3.214,7.095-12.662,13.092-20.635,13.092H80.871v-25.715
	c0-7.973,5.995-17.423,13.092-20.636c7.567-3.426,15.47-3.435,22.845,0.173c0.856,0.419,1.679,0.922,2.445,1.489
	C129.638,115.249,132.399,127.707,127.222,139.14z M99.088,132.373c0,0,2.764,2.526,5.839,2.526c1.229,0,2.56-0.479,2.56-1.946
	c0-2.903-10.995-2.8-10.995-10.311c0-4.506,3.789-7.477,8.638-7.477c5.26,0,7.854,2.766,7.854,2.766l-2.526,4.881
	c0,0-2.458-2.151-5.394-2.151c-1.229,0-2.596,0.547-2.596,1.912c0,3.073,10.995,2.526,10.995,10.243
	c0,4.063-3.109,7.581-8.604,7.581c-5.735,0-8.91-3.484-8.91-3.484L99.088,132.373z"/> </symbol>

<symbol viewBox="0.413 97.988 59.588 59.586" id="sculptMark--white"><title>sculptMark--white</title> <path style="fill:#FFFFFF" d="M47.288,103.169c-1.014-0.764-2.109-1.43-3.256-1.975c-8.949-4.255-18.429-4.238-27.39-0.18
	c-8.949,4.053-16.229,15.492-16.229,25.502v31.056h31.056c10.01,0,21.45-7.28,25.502-16.229
	C63.173,127.648,59.811,112.612,47.288,103.169z M52.105,139.14c-3.214,7.095-12.662,13.092-20.635,13.092H5.754v-25.715
	c0-7.973,5.995-17.423,13.092-20.636c7.567-3.426,15.47-3.435,22.845,0.173c0.856,0.419,1.679,0.922,2.445,1.489
	C54.521,115.249,57.281,127.707,52.105,139.14z M23.971,132.373c0,0,2.764,2.526,5.839,2.526c1.229,0,2.56-0.479,2.56-1.946
	c0-2.903-10.995-2.8-10.995-10.311c0-4.506,3.789-7.477,8.638-7.477c5.26,0,7.854,2.766,7.854,2.766l-2.526,4.881
	c0,0-2.458-2.151-5.394-2.151c-1.229,0-2.596,0.547-2.596,1.912c0,3.073,10.995,2.526,10.995,10.243
	c0,4.063-3.109,7.581-8.604,7.581c-5.735,0-8.91-3.484-8.91-3.484L23.971,132.373z"/> </symbol></svg>