<?xml version="1.0" encoding="iso-8859-1"?>
<!-- Generator: Adobe Illustrator 18.1.1, SVG Export Plug-In . SVG Version: 6.00 Build 0)  -->
<!DOCTYPE svg PUBLIC "-//W3C//DTD SVG 1.1//EN" "http://www.w3.org/Graphics/SVG/1.1/DTD/svg11.dtd" [
	<!ENTITY st0 "fill:#FFFFFF;">
	<!ENTITY st1 "fill:#33333D;">
]>
<svg version="1.1" id="Layer_1" xmlns="http://www.w3.org/2000/svg" xmlns:xlink="http://www.w3.org/1999/xlink" x="0px" y="0px"
	 viewBox="0 0 117.801 35.096" style="enable-background:new 0 0 117.801 35.096;" xml:space="preserve">
<g>
	<path style="&st0;" d="M27.853,3.052c-0.597-0.45-1.242-0.842-1.918-1.163C20.664-0.617,15.08-0.607,9.802,1.783
		C4.531,4.17,0.243,10.908,0.243,16.804v18.292h18.292c5.896,0,12.634-4.288,15.021-9.559C37.209,17.47,35.229,8.614,27.853,3.052z
		 M30.69,24.239c-1.893,4.179-7.458,7.711-12.154,7.711H3.389V16.804c0-4.696,3.531-10.262,7.711-12.155
		c4.457-2.018,9.112-2.023,13.456,0.102c0.504,0.247,0.989,0.543,1.44,0.877C32.113,10.167,33.739,17.505,30.69,24.239z
		 M14.119,20.253c0,0,1.628,1.488,3.439,1.488c0.724,0,1.508-0.282,1.508-1.146c0-1.71-6.476-1.649-6.476-6.073
		c0-2.654,2.232-4.404,5.088-4.404c3.098,0,4.626,1.629,4.626,1.629l-1.488,2.875c0,0-1.448-1.267-3.177-1.267
		c-0.724,0-1.529,0.322-1.529,1.126c0,1.81,6.476,1.488,6.476,6.033c0,2.393-1.831,4.465-5.068,4.465
		c-3.378,0-5.248-2.052-5.248-2.052L14.119,20.253z"/>
	<g>
		<path style="&st1;" d="M42.866,21.566c0,0,1.588,1.73,4.253,1.73c1.532,0,2.865-0.765,2.865-2.269
			c0-3.119-7.685-2.354-7.685-7.004c0-2.552,2.296-3.942,4.877-3.942c3.006,0,4.395,1.56,4.395,1.56l-0.879,1.475
			c0,0-1.22-1.305-3.574-1.305c-1.446,0-2.835,0.624-2.835,2.212c0,3.147,7.685,2.296,7.685,7.004c0,2.326-2.013,3.998-4.877,3.998
			c-3.46,0-5.274-2.07-5.274-2.07L42.866,21.566z"/>
		<path style="&st1;" d="M62.032,10.082c3.488,0,5.218,2.041,5.218,2.041l-0.993,1.446c0,0-1.588-1.729-4.168-1.729
			c-3.119,0-5.557,2.325-5.557,5.728c0,3.347,2.467,5.728,5.614,5.728c2.892,0,4.566-2.013,4.566-2.013l0.879,1.503
			c0,0-1.929,2.24-5.558,2.24c-4.224,0-7.485-3.034-7.485-7.458C54.547,13.173,57.836,10.082,62.032,10.082z"/>
		<path style="&st1;" d="M70.905,10.422h1.929v8.564c0,2.24,0.34,4.225,3.091,4.225c3.261,0,5.274-2.864,5.274-5.955v-6.834h1.928
			v14.263h-1.872v-2.127c0-0.624,0.057-1.134,0.057-1.134h-0.057c-0.567,1.39-2.438,3.601-5.586,3.601
			c-3.347,0-4.764-1.815-4.764-5.529V10.422z"/>
		<path style="&st1;" d="M87.634,4.751h1.928v16.135c0,1.871,0.851,2.155,1.589,2.155c0.255,0,0.482-0.029,0.482-0.029v1.73
			c0,0-0.34,0.057-0.709,0.057c-1.192,0-3.289-0.369-3.289-3.488V4.751z"/>
		<path style="&st1;" d="M94.778,10.422h1.843v1.39c0,0.624-0.057,1.106-0.057,1.106h0.057c0,0,1.163-2.836,4.934-2.836
			c3.828,0,6.21,3.062,6.21,7.486c0,4.509-2.695,7.458-6.38,7.458c-3.431,0-4.679-2.722-4.679-2.722H96.65
			c0,0,0.057,0.511,0.057,1.248v6.806h-1.929V10.422z M101.187,23.325c2.524,0,4.594-2.127,4.594-5.757
			c0-3.488-1.843-5.728-4.51-5.728c-2.381,0-4.622,1.701-4.622,5.756C96.65,20.461,98.237,23.325,101.187,23.325z"/>
		<path style="&st1;" d="M112.016,12.209h-1.871v-1.617h1.899V6.481h1.9v4.111h3.573v1.617h-3.573v7.089
			c0,3.346,2.126,3.772,3.204,3.772c0.397,0,0.652-0.057,0.652-0.057v1.73c0,0-0.312,0.057-0.822,0.057
			c-1.645,0-4.963-0.539-4.963-5.303V12.209z"/>
	</g>
</g>
</svg>
